<svg width="266" height="48" viewBox="0 0 266 48" fill="none" xmlns="http://www.w3.org/2000/svg">
<path d="M24 14C24 11.8783 23.1571 9.84344 21.6569 8.34315C20.1566 6.84285 18.1217 6 16 6H4V36H18C19.5913 36 21.1174 36.6321 22.2426 37.7574C23.3679 38.8826 24 40.4087 24 42M24 14V42M24 14C24 11.8783 24.8429 9.84344 26.3431 8.34315C27.8434 6.84285 29.8783 6 32 6H44V36H30C28.4087 36 26.8826 36.6321 25.7574 37.7574C24.6321 38.8826 24 40.4087 24 42" stroke="#F5F5F5" stroke-width="4" stroke-linecap="round" stroke-linejoin="round"/>
<path d="M64.34 20.75V29H60.53V8.57H69.29C70.07 8.57 70.8 8.72 71.48 9.02C72.16 9.3 72.74 9.69 73.22 10.19C73.72 10.69 74.11 11.28 74.39 11.96C74.69 12.64 74.84 13.36 74.84 14.12V15.02C74.84 15.78 74.69 16.5 74.39 17.18C74.11 17.84 73.72 18.43 73.22 18.95C72.74 19.45 72.16 19.84 71.48 20.12C70.8 20.4 70.07 20.54 69.29 20.54H68.27L75.2 29H70.85L64.34 20.75ZM64.34 12.14V16.97H68.69C69.55 16.97 70.18 16.76 70.58 16.34C70.98 15.92 71.18 15.33 71.18 14.57C71.18 13.85 70.98 13.27 70.58 12.83C70.18 12.37 69.55 12.14 68.69 12.14H64.34ZM77.1022 19.16C77.1022 18.42 77.2422 17.73 77.5222 17.09C77.8022 16.43 78.1722 15.85 78.6322 15.35C79.0922 14.85 79.6222 14.46 80.2222 14.18C80.8222 13.88 81.4222 13.73 82.0222 13.73H85.4422C86.2222 13.73 86.9122 13.9 87.5122 14.24C88.1322 14.56 88.6422 14.98 89.0422 15.5C89.4622 16 89.7822 16.57 90.0022 17.21C90.2422 17.83 90.3622 18.44 90.3622 19.04V22.91H80.6422V23.72C80.6422 24.44 80.8422 24.95 81.2422 25.25C81.6422 25.55 82.1722 25.7 82.8322 25.7H89.8222V29.06H82.0522C81.3722 29.06 80.7322 28.93 80.1322 28.67C79.5322 28.39 79.0022 28.02 78.5422 27.56C78.1022 27.1 77.7522 26.55 77.4922 25.91C77.2322 25.27 77.1022 24.57 77.1022 23.81V19.16ZM80.6722 20.06H86.8822V19.91C86.8822 19.13 86.6822 18.49 86.2822 17.99C85.8822 17.47 85.3422 17.21 84.6622 17.21H82.8022C82.4822 17.21 82.1922 17.29 81.9322 17.45C81.6722 17.59 81.4522 17.78 81.2722 18.02C81.0922 18.26 80.9422 18.55 80.8222 18.89C80.7222 19.21 80.6722 19.55 80.6722 19.91V20.06ZM92.878 8.57H96.418V29H92.878V8.57ZM98.9926 18.56C99.0526 17.92 99.1926 17.31 99.4126 16.73C99.6526 16.15 99.9926 15.64 100.433 15.2C100.873 14.76 101.423 14.41 102.083 14.15C102.743 13.87 103.503 13.73 104.363 13.73H106.163C107.063 13.73 107.843 13.88 108.503 14.18C109.183 14.48 109.743 14.88 110.183 15.38C110.623 15.86 110.953 16.42 111.173 17.06C111.393 17.68 111.503 18.31 111.503 18.95V29H102.983C102.323 29 101.733 28.88 101.213 28.64C100.693 28.38 100.253 28.05 99.8926 27.65C99.5526 27.23 99.2926 26.74 99.1126 26.18C98.9526 25.62 98.8726 25.02 98.8726 24.38C98.8726 23.76 98.9626 23.18 99.1426 22.64C99.3226 22.1 99.5826 21.64 99.9226 21.26C100.263 20.86 100.683 20.55 101.183 20.33C101.703 20.09 102.283 19.97 102.923 19.97H108.053V19.67C108.053 19.31 108.023 18.98 107.963 18.68C107.903 18.36 107.793 18.09 107.633 17.87C107.473 17.65 107.233 17.48 106.913 17.36C106.593 17.22 106.163 17.15 105.623 17.15H104.873C104.073 17.15 103.503 17.27 103.163 17.51C102.823 17.73 102.593 18.08 102.473 18.56H98.9926ZM102.083 24.38C102.083 24.9 102.183 25.29 102.383 25.55C102.603 25.79 102.843 25.91 103.103 25.91H108.053V22.85H103.103C102.843 22.85 102.603 22.98 102.383 23.24C102.183 23.5 102.083 23.88 102.083 24.38ZM113.314 13.73H116.134V8.57H119.674V13.73H122.494V17.18H119.674V29H116.134V17.18H113.314V13.73ZM130.829 13.73C131.709 13.73 132.489 13.87 133.169 14.15C133.869 14.41 134.459 14.78 134.939 15.26C135.439 15.74 135.819 16.32 136.079 17C136.339 17.68 136.469 18.45 136.469 19.31V23.42C136.469 24.26 136.339 25.03 136.079 25.73C135.819 26.41 135.439 27 134.939 27.5C134.459 27.98 133.869 28.35 133.169 28.61C132.489 28.87 131.709 29 130.829 29H129.599C128.739 29 127.959 28.87 127.259 28.61C126.559 28.35 125.959 27.98 125.459 27.5C124.979 27 124.609 26.41 124.349 25.73C124.109 25.03 123.989 24.26 123.989 23.42V19.31C123.989 18.45 124.109 17.68 124.349 17C124.609 16.32 124.979 15.74 125.459 15.26C125.959 14.78 126.559 14.41 127.259 14.15C127.959 13.87 128.739 13.73 129.599 13.73H130.829ZM129.599 17.18C128.979 17.18 128.449 17.39 128.009 17.81C127.589 18.21 127.379 18.74 127.379 19.4V23.3C127.379 23.96 127.589 24.5 128.009 24.92C128.449 25.34 128.979 25.55 129.599 25.55H130.829C131.469 25.55 131.989 25.34 132.389 24.92C132.809 24.5 133.019 23.96 133.019 23.3V19.4C133.019 18.74 132.809 18.21 132.389 17.81C131.989 17.39 131.469 17.18 130.829 17.18H129.599ZM149.357 16.7H143.387C143.127 16.7 142.907 16.75 142.727 16.85C142.567 16.93 142.427 17.05 142.307 17.21C142.187 17.37 142.097 17.55 142.037 17.75C141.977 17.93 141.947 18.11 141.947 18.29C141.947 18.67 142.067 19.02 142.307 19.34C142.567 19.64 142.877 19.79 143.237 19.79H146.597C147.297 19.79 147.907 19.91 148.427 20.15C148.967 20.39 149.407 20.72 149.747 21.14C150.107 21.56 150.367 22.06 150.527 22.64C150.707 23.22 150.797 23.84 150.797 24.5V24.59C150.797 25.25 150.687 25.85 150.467 26.39C150.267 26.93 149.977 27.39 149.597 27.77C149.217 28.15 148.767 28.45 148.247 28.67C147.727 28.89 147.177 29 146.597 29H139.337V26.03H145.577C146.037 26.03 146.457 25.9 146.837 25.64C147.237 25.38 147.447 24.99 147.467 24.47V24.5C147.467 24.2 147.407 23.95 147.287 23.75C147.187 23.55 147.047 23.39 146.867 23.27C146.687 23.13 146.487 23.03 146.267 22.97C146.047 22.91 145.817 22.88 145.577 22.88H142.877C141.997 22.88 141.267 22.74 140.687 22.46C140.127 22.18 139.677 21.82 139.337 21.38C139.017 20.94 138.797 20.44 138.677 19.88C138.557 19.32 138.497 18.75 138.497 18.17C138.497 17.57 138.587 16.99 138.767 16.43C138.947 15.87 139.207 15.38 139.547 14.96C139.907 14.52 140.347 14.18 140.867 13.94C141.387 13.7 141.977 13.58 142.637 13.58H149.357V16.7ZM167.58 29C166.7 29 165.91 28.87 165.21 28.61C164.53 28.35 163.94 27.98 163.44 27.5C162.96 27 162.59 26.41 162.33 25.73C162.07 25.03 161.94 24.26 161.94 23.42V19.31C161.94 18.45 162.07 17.68 162.33 17C162.59 16.32 162.96 15.74 163.44 15.26C163.94 14.78 164.53 14.41 165.21 14.15C165.91 13.87 166.7 13.73 167.58 13.73H168.78C169.62 13.73 170.38 13.85 171.06 14.09V8.57H174.42V29H167.58ZM171.06 25.55V19.4C171.06 18.74 170.84 18.21 170.4 17.81C169.96 17.39 169.42 17.18 168.78 17.18H167.58C166.94 17.18 166.39 17.39 165.93 17.81C165.49 18.21 165.27 18.74 165.27 19.4V23.3C165.27 23.96 165.49 24.5 165.93 24.92C166.39 25.34 166.94 25.55 167.58 25.55H171.06ZM176.417 19.16C176.417 18.42 176.557 17.73 176.837 17.09C177.117 16.43 177.487 15.85 177.947 15.35C178.407 14.85 178.937 14.46 179.537 14.18C180.137 13.88 180.737 13.73 181.337 13.73H184.757C185.537 13.73 186.227 13.9 186.827 14.24C187.447 14.56 187.957 14.98 188.357 15.5C188.777 16 189.097 16.57 189.317 17.21C189.557 17.83 189.677 18.44 189.677 19.04V22.91H179.957V23.72C179.957 24.44 180.157 24.95 180.557 25.25C180.957 25.55 181.487 25.7 182.147 25.7H189.137V29.06H181.367C180.687 29.06 180.047 28.93 179.447 28.67C178.847 28.39 178.317 28.02 177.857 27.56C177.417 27.1 177.067 26.55 176.807 25.91C176.547 25.27 176.417 24.57 176.417 23.81V19.16ZM179.987 20.06H186.197V19.91C186.197 19.13 185.997 18.49 185.597 17.99C185.197 17.47 184.657 17.21 183.977 17.21H182.117C181.797 17.21 181.507 17.29 181.247 17.45C180.987 17.59 180.767 17.78 180.587 18.02C180.407 18.26 180.257 18.55 180.137 18.89C180.037 19.21 179.987 19.55 179.987 19.91V20.06ZM207.787 13.73C208.667 13.73 209.447 13.87 210.127 14.15C210.827 14.41 211.417 14.78 211.897 15.26C212.397 15.74 212.777 16.32 213.037 17C213.297 17.68 213.427 18.45 213.427 19.31V23.42C213.427 24.26 213.297 25.03 213.037 25.73C212.777 26.41 212.397 27 211.897 27.5C211.417 27.98 210.827 28.35 210.127 28.61C209.447 28.87 208.667 29 207.787 29H206.827C205.947 29 205.147 28.86 204.427 28.58V34.22H200.947V13.73H207.787ZM204.427 17.18V23.3C204.427 23.96 204.627 24.5 205.027 24.92C205.427 25.34 205.947 25.55 206.587 25.55H207.787C208.427 25.55 208.957 25.34 209.377 24.92C209.797 24.5 210.007 23.96 210.007 23.3V19.4C210.007 18.74 209.797 18.21 209.377 17.81C208.957 17.39 208.427 17.18 207.787 17.18H204.427ZM215.304 18.56C215.364 17.92 215.504 17.31 215.724 16.73C215.964 16.15 216.304 15.64 216.744 15.2C217.184 14.76 217.734 14.41 218.394 14.15C219.054 13.87 219.814 13.73 220.674 13.73H222.474C223.374 13.73 224.154 13.88 224.814 14.18C225.494 14.48 226.054 14.88 226.494 15.38C226.934 15.86 227.264 16.42 227.484 17.06C227.704 17.68 227.814 18.31 227.814 18.95V29H219.294C218.634 29 218.044 28.88 217.524 28.64C217.004 28.38 216.564 28.05 216.204 27.65C215.864 27.23 215.604 26.74 215.424 26.18C215.264 25.62 215.184 25.02 215.184 24.38C215.184 23.76 215.274 23.18 215.454 22.64C215.634 22.1 215.894 21.64 216.234 21.26C216.574 20.86 216.994 20.55 217.494 20.33C218.014 20.09 218.594 19.97 219.234 19.97H224.364V19.67C224.364 19.31 224.334 18.98 224.274 18.68C224.214 18.36 224.104 18.09 223.944 17.87C223.784 17.65 223.544 17.48 223.224 17.36C222.904 17.22 222.474 17.15 221.934 17.15H221.184C220.384 17.15 219.814 17.27 219.474 17.51C219.134 17.73 218.904 18.08 218.784 18.56H215.304ZM218.394 24.38C218.394 24.9 218.494 25.29 218.694 25.55C218.914 25.79 219.154 25.91 219.414 25.91H224.364V22.85H219.414C219.154 22.85 218.914 22.98 218.694 23.24C218.494 23.5 218.394 23.88 218.394 24.38ZM236.945 13.73C237.825 13.73 238.605 13.87 239.285 14.15C239.985 14.41 240.575 14.78 241.055 15.26C241.555 15.74 241.935 16.32 242.195 17C242.455 17.68 242.585 18.45 242.585 19.31V23.42C242.585 24.26 242.455 25.03 242.195 25.73C241.935 26.41 241.555 27 241.055 27.5C240.575 27.98 239.985 28.35 239.285 28.61C238.605 28.87 237.825 29 236.945 29H235.985C235.105 29 234.305 28.86 233.585 28.58V34.22H230.105V13.73H236.945ZM233.585 17.18V23.3C233.585 23.96 233.785 24.5 234.185 24.92C234.585 25.34 235.105 25.55 235.745 25.55H236.945C237.585 25.55 238.115 25.34 238.535 24.92C238.955 24.5 239.165 23.96 239.165 23.3V19.4C239.165 18.74 238.955 18.21 238.535 17.81C238.115 17.39 237.585 17.18 236.945 17.18H233.585ZM244.521 19.16C244.521 18.42 244.661 17.73 244.941 17.09C245.221 16.43 245.591 15.85 246.051 15.35C246.511 14.85 247.041 14.46 247.641 14.18C248.241 13.88 248.841 13.73 249.441 13.73H252.861C253.641 13.73 254.331 13.9 254.931 14.24C255.551 14.56 256.061 14.98 256.461 15.5C256.881 16 257.201 16.57 257.421 17.21C257.661 17.83 257.781 18.44 257.781 19.04V22.91H248.061V23.72C248.061 24.44 248.261 24.95 248.661 25.25C249.061 25.55 249.591 25.7 250.251 25.7H257.241V29.06H249.471C248.791 29.06 248.151 28.93 247.551 28.67C246.951 28.39 246.421 28.02 245.961 27.56C245.521 27.1 245.171 26.55 244.911 25.91C244.651 25.27 244.521 24.57 244.521 23.81V19.16ZM248.091 20.06H254.301V19.91C254.301 19.13 254.101 18.49 253.701 17.99C253.301 17.47 252.761 17.21 252.081 17.21H250.221C249.901 17.21 249.611 17.29 249.351 17.45C249.091 17.59 248.871 17.78 248.691 18.02C248.511 18.26 248.361 18.55 248.241 18.89C248.141 19.21 248.091 19.55 248.091 19.91V20.06ZM260.297 8.57H263.837V29H260.297V8.57Z" fill="white"/>
</svg>
